<svg width="24" height="24" viewBox="0 0 24 24" fill="none" xmlns="http://www.w3.org/2000/svg">
<path fill-rule="evenodd" clip-rule="evenodd" d="M10.5941 2.57748C11.3732 1.80751 12.6268 1.80751 13.4059 2.57748L20.1088 9.20185C20.6791 9.76544 21 10.5339 21 11.3356V19.0003C21 20.1049 20.1046 21.0003 19 21.0003H16C14.8954 21.0003 14 20.1049 14 19.0003V14.0003H10V19.0003C10 20.1049 9.10457 21.0003 8 21.0003H5C3.89543 21.0003 3 20.1049 3 19.0003V11.3356C3 10.5339 3.32094 9.76544 3.89122 9.20185L10.5941 2.57748ZM12 4L5.29707 10.6244C5.10698 10.8122 5 11.0684 5 11.3356V19.0003H8V14.0003C8 12.8957 8.89543 12.0003 10 12.0003H14C15.1046 12.0003 16 12.8957 16 14.0003V19.0003H19V11.3356C19 11.0684 18.893 10.8122 18.7029 10.6244L12 4Z" fill="black"/>
</svg>
