<?xml version="1.0" encoding="UTF-8"?>
<svg id="Ebene_1" xmlns="http://www.w3.org/2000/svg" version="1.1" xmlns:xlink="http://www.w3.org/1999/xlink" viewBox="0 0 96 96">
  <!-- Generator: Adobe Illustrator 29.4.0, SVG Export Plug-In . SVG Version: 2.1.0 Build 152)  -->
  <defs>
    <style>
      .st0 {
        fill: none;
      }

      .st1 {
        fill: #84b0f5;
      }

      .st2 {
        clip-path: url(#clippath);
      }
    </style>
    <clipPath id="clippath">
      <rect class="st0" width="96" height="96"/>
    </clipPath>
  </defs>
  <g class="st2">
    <g>
      <polygon class="st1" points="45.54 64.85 45.55 64.84 45.54 64.83 45.54 64.85"/>
      <path class="st1" d="M65.09,61.61c-.84-.31-1.59-.94-2.04-1.82-.65-1.31-1.65-2.02-3.21-2.02-2.02,0-3.68,1.35-4.13,3.08v-.02c-.35,1.33-1.33,2.25-2.31,2.72-.45.22-.71.65-.71,1.12,0,.61.47,1.16,1.14,1.27h11.83c.71-.31,1.33-1.12,1.33-2.21,0-.61-.67-1.63-1.9-2.12Z"/>
      <path class="st1" d="M80,24h-32l-8-8h-24c-4.4,0-7.96,3.6-7.96,8l-.04,48c0,4.4,3.6,8,8,8h64c4.4,0,8-3.6,8-8v-40c0-4.4-3.6-8-8-8ZM45.67,66.1h-15.46c-3.39,0-6.13-2.74-6.13-6.13v-18.38c0-2.25,1.84-4.09,4.09-4.09h5.29l3.49-3.49c.39-.37.9-.59,1.45-.59h12.26c.55,0,1.06.2,1.45.59l3.49,3.49h5.29c2.25,0,4.09,1.84,4.09,4.09v10.46c-1.51-.84-3.25-1.27-5.13-1.27-2.29,0-4.45.69-6.27,1.88.12-.61.18-1.25.18-1.88,0-5.09-4.11-9.19-9.19-9.19s-9.19,4.11-9.19,9.19,4.11,9.19,9.19,9.19c1.04,0,2.02-.2,2.96-.53-1.24,1.49-1.98,3.38-1.98,5.4,0,.45.06.85.12,1.26ZM44.56,55.72c-2.82,0-5.11-2.29-5.11-5.11s2.29-5.11,5.11-5.11,5.11,2.29,5.11,5.11-2.29,5.11-5.11,5.11ZM66.77,69.88c-.37.1-.69.12-.96.12h-12.28c-2.74-.25-4.92-2.51-4.92-5.33,0-2.12,1.25-3.92,3-4.78.06-.02.12-.06.16-.12.96-3.53,4.23-6.09,8.07-6.09h.02c3.21,0,5.51,1.67,6.8,4.15,2.1.86,4.43,3.02,4.43,5.9,0,2.68-1.59,5.29-4.33,6.15Z"/>
    </g>
  </g>
</svg>