<svg width="24" height="24" viewBox="0 0 24 24" fill="none" xmlns="http://www.w3.org/2000/svg">
<path d="M10.8101 8.98504C10.6247 8.87383 10.3939 8.87091 10.2057 8.97742C10.0176 9.08392 9.90137 9.28337 9.90137 9.49954V14.7492C9.90137 14.9654 10.0176 15.1648 10.2057 15.2713C10.3939 15.3778 10.6247 15.3749 10.8101 15.2637L15.1848 12.6389C15.3655 12.5304 15.4761 12.3351 15.4761 12.1244C15.4761 11.9136 15.3655 11.7183 15.1848 11.6099L10.8101 8.98504Z" fill="black"/>
<path fill-rule="evenodd" clip-rule="evenodd" d="M2 12C2 6.47715 6.47715 2 12 2C17.5228 2 22 6.47715 22 12C22 17.5228 17.5228 22 12 22C6.47715 22 2 17.5228 2 12ZM12 4C7.58172 4 4 7.58172 4 12C4 16.4183 7.58172 20 12 20C16.4183 20 20 16.4183 20 12C20 7.58172 16.4183 4 12 4Z" fill="black"/>
</svg>
