<?xml version="1.0" encoding="UTF-8" standalone="no"?>
<svg
   xmlns:dc="http://purl.org/dc/elements/1.1/"
   xmlns:cc="http://creativecommons.org/ns#"
   xmlns:rdf="http://www.w3.org/1999/02/22-rdf-syntax-ns#"
   xmlns:svg="http://www.w3.org/2000/svg"
   xmlns="http://www.w3.org/2000/svg"
   xmlns:sodipodi="http://sodipodi.sourceforge.net/DTD/sodipodi-0.dtd"
   xmlns:inkscape="http://www.inkscape.org/namespaces/inkscape"
   width="300"
   height="300"
   viewBox="0 0 300 300"
   version="1.1"
   id="svg15"
   sodipodi:docname="Application-Logo.svg"
   inkscape:version="1.0.2 (e86c870879, 2021-01-15, custom)">
  <metadata
     id="metadata19">
    <rdf:RDF>
      <cc:Work
         rdf:about="">
        <dc:format>image/svg+xml</dc:format>
        <dc:type
           rdf:resource="http://purl.org/dc/dcmitype/StillImage" />
      </cc:Work>
    </rdf:RDF>
  </metadata>
  <sodipodi:namedview
     pagecolor="#ffffff"
     bordercolor="#666666"
     borderopacity="1"
     objecttolerance="10"
     gridtolerance="10"
     guidetolerance="10"
     inkscape:pageopacity="0"
     inkscape:pageshadow="2"
     inkscape:window-width="1920"
     inkscape:window-height="1171"
     id="namedview17"
     showgrid="false"
     inkscape:zoom="2.3833333"
     inkscape:cx="150"
     inkscape:cy="150"
     inkscape:window-x="1920"
     inkscape:window-y="0"
     inkscape:window-maximized="1"
     inkscape:current-layer="svg15" />
  <defs
     id="defs5" />
  <circle
     id="Ellipse_12"
     data-name="Ellipse 12"
     cx="168.616"
     cy="132.263"
     r="72.070999"
     fill="#fb8ac4" />
  <circle
     id="Ellipse_13"
     data-name="Ellipse 13"
     cx="99.706001"
     cy="129.735"
     r="42.990002"
     fill="#f65aa8" />
  <path
     id="Pfad_434"
     data-name="Pfad 434"
     d="m 229.94,211.29 h -4.742 l -1.264,1.264 c -12.012,13.908 -37.3,15.805 -50.576,7.586 a 68.278,68.278 0 0 1 -41.726,12.644 78.583,78.583 0 0 1 -56.266,-22.127 48.805,48.805 0 0 1 -9.483,1.263 42.99,42.99 0 0 1 0,-85.98 41.726,41.726 0 0 1 42.99,40.463 c 33.507,-10.748 75.232,-38.565 75.232,-0.632 a 46.264,46.264 0 1 1 45.835,45.519 z"
     fill="#f82f99"
     fill-rule="evenodd" />
  <path
     id="Pfad_435"
     data-name="Pfad 435"
     d="m 155.972,124.045 54.37,55.634 H 100.97 Z"
     fill="#da0072"
     fill-rule="evenodd" />
  <path
     id="Pfad_436"
     data-name="Pfad 436"
     d="m 155.972,111.401 54.37,55.634 h -35.72 v 59.427 c -0.632,0 -0.632,-0.632 -1.264,-0.632 a 76.371,76.371 0 0 1 -36.036,12.644 v -71.439 h -36.036 z"
     fill="#ffffff"
     fill-rule="evenodd" />
</svg>
