<?xml version="1.0" encoding="UTF-8"?>
<svg id="Ebene_1" xmlns="http://www.w3.org/2000/svg" version="1.1" xmlns:xlink="http://www.w3.org/1999/xlink" viewBox="0 0 96 96">
  <!-- Generator: Adobe Illustrator 29.4.0, SVG Export Plug-In . SVG Version: 2.1.0 Build 152)  -->
  <defs>
    <style>
      .st0 {
        fill: none;
      }

      .st1 {
        fill: #84b0f5;
      }

      .st2 {
        clip-path: url(#clippath);
      }
    </style>
    <clipPath id="clippath">
      <rect class="st0" width="96" height="96"/>
    </clipPath>
  </defs>
  <g class="st2">
    <path class="st1" d="M80,24h-32l-8-8h-24c-4.4,0-7.96,3.6-7.96,8l-.04,48c0,4.4,3.6,8,8,8h64c4.4,0,8-3.6,8-8v-40c0-4.4-3.6-8-8-8ZM37.98,46.18c.87-.87,2.28-.87,3.15,0l5.11,5.11v-10.65c0-3.19,2.6-5.79,5.79-5.79h9.79c1.23,0,2.23,1,2.23,2.23s-1,2.23-2.23,2.23h-9.79c-.73,0-1.34.61-1.34,1.34v10.65l5.11-5.11c.87-.87,2.28-.87,3.15,0s.87,2.28,0,3.15l-8.9,8.9c-.41.41-.98.66-1.57.66s-1.16-.23-1.57-.66l-8.9-8.9c-.87-.87-.87-2.28,0-3.15h-.04ZM66.25,64.21c0,3.19-2.6,5.79-5.79,5.79h-24.93c-3.19,0-5.79-2.6-5.79-5.79v-21.37c0-1.23,1-2.23,2.23-2.23s2.23,1,2.23,2.23v21.37c0,.73.61,1.34,1.34,1.34h24.93c.73,0,1.34-.61,1.34-1.34v-8.01c0-1.23,1-2.23,2.23-2.23s2.23,1,2.23,2.23v8.01Z"/>
  </g>
</svg>