<svg width="24" height="24" viewBox="0 0 24 24" fill="none" xmlns="http://www.w3.org/2000/svg">
<path fill-rule="evenodd" clip-rule="evenodd" d="M2 5C2 4.44772 2.44772 4 3 4H10.0975C11.3985 4 12.5135 4.83026 12.9266 6H21C21.5523 6 22 6.44771 22 7V17C22 18.6569 20.6569 20 19 20H5C3.34315 20 2 18.6569 2 17V5ZM4 6V17C4 17.5523 4.44772 18 5 18H19C19.5523 18 20 17.5523 20 17V8H12.1C11.5671 8 11.1279 7.58215 11.1012 7.04994L11.0963 6.95006C11.0696 6.41785 10.6304 6 10.0975 6H4Z" fill="black"/>
</svg>
