<svg id="Ebene_1" data-name="Ebene 1" xmlns="http://www.w3.org/2000/svg" viewBox="0 0 24 24"><defs><style>.cls-1{fill:#262626;}</style></defs><g id="Gruppe_32" data-name="Gruppe 32"><path id="Combined_Shape-2" data-name="Combined Shape-2" class="cls-1" d="M4,21.75a3,3,0,0,1-3-3V2.25H7.5a3.65,3.65,0,0,1,2.7,1.2l.45.45a1.43,1.43,0,0,0,.85.35H23v14.5a3,3,0,0,1-3,3Zm-1.5-3a1.46,1.46,0,0,0,1.43,1.5H20a1.47,1.47,0,0,0,1.5-1.44V5.75h-10A2.57,2.57,0,0,1,9.6,4.9l-.45-.45a2.38,2.38,0,0,0-1.65-.7h-5Z"/></g><path id="Shape" class="cls-1" d="M14.14,16.56H9.86a1.07,1.07,0,0,1-1.07-1.08V12.09h.89v-.71a2.32,2.32,0,0,1,4.64,0v.71h.89v3.39A1.07,1.07,0,0,1,14.14,16.56Zm-2.14-3a.54.54,0,0,0-.54.53.55.55,0,0,0,.18.4v.68h.72v-.68a.53.53,0,0,0,0-.75A.52.52,0,0,0,12,13.52Zm0-3.93a1.79,1.79,0,0,0-1.79,1.79v.71h3.58v-.71A1.79,1.79,0,0,0,12,9.59Z"/></svg>