<svg width="24" height="24" viewBox="0 0 24 24" fill="none" xmlns="http://www.w3.org/2000/svg">
<path fill-rule="evenodd" clip-rule="evenodd" d="M12 2C9.23858 2 7 4.23858 7 7C7 9.76142 9.23858 12 12 12C14.7614 12 17 9.76142 17 7C17 4.23858 14.7614 2 12 2ZM9 7C9 5.34315 10.3431 4 12 4C13.6569 4 15 5.34315 15 7C15 8.65685 13.6569 10 12 10C10.3431 10 9 8.65685 9 7Z" fill="black"/>
<path d="M5.99005 21.1416C6.40406 18.2472 8.96574 16 12 16C15.0344 16 17.5962 18.2472 18.0102 21.1416C18.0884 21.6883 18.595 22.0681 19.1417 21.9899C19.6884 21.9117 20.0683 21.4051 19.9901 20.8584C19.4336 16.9682 16.0187 14 12 14C7.98139 14 4.56665 16.9682 4.0102 20.8584C3.932 21.4051 4.31181 21.9117 4.85853 21.9899C5.40525 22.0681 5.91185 21.6883 5.99005 21.1416Z" fill="black"/>
</svg>
