<svg width="24" height="24" viewBox="0 0 24 24" fill="none" xmlns="http://www.w3.org/2000/svg">
<path fill-rule="evenodd" clip-rule="evenodd" d="M10.4 3C6.31309 3 3 6.31309 3 10.4C3 14.4869 6.31309 17.8 10.4 17.8C12.0839 17.8 13.6364 17.2376 14.88 16.2903L19.2933 20.7036C19.6838 21.0941 20.317 21.0941 20.7075 20.7036C21.098 20.3131 21.098 19.6799 20.7075 19.2894L16.2937 14.8756C17.2389 13.6327 17.8 12.0819 17.8 10.4C17.8 6.31309 14.4869 3 10.4 3ZM5 10.4C5 7.41766 7.41766 5 10.4 5C13.3823 5 15.8 7.41766 15.8 10.4C15.8 13.3823 13.3823 15.8 10.4 15.8C7.41766 15.8 5 13.3823 5 10.4Z" fill="black"/>
</svg>
