<svg width="24" height="24" viewBox="0 0 24 24" fill="none" xmlns="http://www.w3.org/2000/svg">
<path d="M20 20C20 21.1046 19.1046 22 18 22H6C4.89543 22 4 21.1046 4 20V19C3.44772 19 3 18.5523 3 18C3 17.4477 3.44772 17 4 17H6C6.55228 17 7 17.4477 7 18C7 18.5523 6.55228 19 6 19V20H18V4H6V5C6.55228 5 7 5.44772 7 6C7 6.55228 6.55228 7 6 7H4C3.44772 7 3 6.55228 3 6C3 5.44772 3.44772 5 4 5V4C4 2.89543 4.89543 2 6 2H18C19.1046 2 20 2.89543 20 4V20Z" fill="black"/>
<path d="M12.1014 14.9993C11.0013 14.9993 10.3291 15.3541 9.90644 15.7888C9.52145 16.1848 8.88835 16.1937 8.49237 15.8087C8.09639 15.4237 8.08748 14.7906 8.47247 14.3946C9.31191 13.5312 10.5216 12.9993 12.1014 12.9993C13.6812 12.9993 14.891 13.5312 15.7304 14.3946C16.1154 14.7906 16.1065 15.4237 15.7105 15.8087C15.3146 16.1937 14.6815 16.1848 14.2965 15.7888C13.8738 15.3541 13.2016 14.9993 12.1014 14.9993Z" fill="black"/>
<path d="M12.0996 7.99927C10.995 7.99927 10.0996 8.8947 10.0996 9.99927C10.0996 11.1038 10.995 11.9993 12.0996 11.9993C13.2042 11.9993 14.0996 11.1038 14.0996 9.99927C14.0996 8.8947 13.2042 7.99927 12.0996 7.99927Z" fill="black"/>
<path d="M4 9C3.44772 9 3 9.44772 3 10C3 10.5523 3.44772 11 4 11H6C6.55228 11 7 10.5523 7 10C7 9.44772 6.55228 9 6 9H4Z" fill="black"/>
<path d="M3 14C3 13.4477 3.44772 13 4 13H6C6.55228 13 7 13.4477 7 14C7 14.5523 6.55228 15 6 15H4C3.44772 15 3 14.5523 3 14Z" fill="black"/>
</svg>
