<?xml version="1.0" encoding="UTF-8"?>
<svg id="Ebene_1" xmlns="http://www.w3.org/2000/svg" version="1.1" viewBox="0 0 24 24">
  <!-- Generator: Adobe Illustrator 29.4.0, SVG Export Plug-In . SVG Version: 2.1.0 Build 152)  -->
  <defs>
    <style>
      .st0 {
        fill-rule: evenodd;
      }
    </style>
  </defs>
  <path d="M22,19c0-.55-.45-1-1-1s-1,.45-1,1v1c0,.55-.45,1-1,1h-1c-.55,0-1,.45-1,1s.45,1,1,1h1c1.66,0,3-1.34,3-3v-1Z"/>
  <path d="M2,19c0-.55.45-1,1-1s1,.45,1,1v1c0,.55.45,1,1,1h1c.55,0,1,.45,1,1s-.45,1-1,1h-1c-1.66,0-3-1.34-3-3v-1Z"/>
  <path d="M22,5c0,.55-.45,1-1,1s-1-.45-1-1v-1c0-.55-.45-1-1-1h-1c-.55,0-1-.45-1-1s.45-1,1-1h1c1.66,0,3,1.34,3,3v1Z"/>
  <path d="M2,5c0,.55.45,1,1,1s1-.45,1-1v-1c0-.55.45-1,1-1h1c.55,0,1-.45,1-1s-.45-1-1-1h-1c-1.66,0-3,1.34-3,3v1Z"/>
  <path d="M8.2,12c0-.44.36-.8.8-.8h6c.44,0,.8.36.8.8s-.36.8-.8.8h-6c-.44,0-.8-.36-.8-.8Z"/>
  <path d="M8.2,9c0-.44.36-.8.8-.8h6c.44,0,.8.36.8.8s-.36.8-.8.8h-6c-.44,0-.8-.36-.8-.8Z"/>
  <path d="M9,14.2c-.44,0-.8.36-.8.8s.36.8.8.8h6c.44,0,.8-.36.8-.8s-.36-.8-.8-.8h-6Z"/>
  <path class="st0" d="M7,4c-1.1,0-2,.9-2,2v12c0,1.1.9,2,2,2h10c1.1,0,2-.9,2-2V6c0-1.1-.9-2-2-2H7ZM7,6h10v12H7V6Z"/>
</svg>