<svg width="24" height="24" viewBox="0 0 24 24" fill="none" xmlns="http://www.w3.org/2000/svg">
<path d="M13.5248 12.1034C13.7843 12.1106 14.0242 12.2433 14.1682 12.4593L16.6649 16.2044C16.91 16.572 16.8106 17.0687 16.443 17.3138C16.0754 17.5589 15.5787 17.4595 15.3336 17.0919L13.4641 14.2877L11.6458 16.712C11.5067 16.8976 11.2939 17.0136 11.0626 17.03C10.8312 17.0465 10.6041 16.9617 10.4402 16.7977L9.42793 15.7855L8.73302 16.712C8.46792 17.0655 7.96648 17.1371 7.61302 16.872C7.25955 16.6069 7.18792 16.1055 7.45302 15.752L8.70137 14.0876C8.84052 13.902 9.05333 13.786 9.28466 13.7696C9.51599 13.7531 9.74307 13.8379 9.90706 14.0019L10.9193 15.0141L12.8626 12.4231C13.0183 12.2154 13.2652 12.0962 13.5248 12.1034Z" fill="black"/>
<path d="M10.3449 12.8708C10.7867 12.8708 11.1449 12.5126 11.1449 12.0708C11.1449 11.629 10.7867 11.2708 10.3449 11.2708C9.90309 11.2708 9.54492 11.629 9.54492 12.0708C9.54492 12.5126 9.90309 12.8708 10.3449 12.8708Z" fill="black"/>
<path fill-rule="evenodd" clip-rule="evenodd" d="M18 22C19.1046 22 20 21.1046 20 20V4C20 2.89543 19.1046 2 18 2H11.4142C10.8838 2 10.3751 2.21071 10 2.58579L4.58579 8C4.21071 8.37507 4 8.88378 4 9.41421V20C4 21.1046 4.89543 22 6 22H18ZM18 4V20H6V10H10C11.1046 10 12 9.10457 12 8V4H18ZM10 5.41421L7.41421 8L10 8V5.41421Z" fill="black"/>
</svg>
