<svg width="24" height="24" viewBox="0 0 24 24" fill="none" xmlns="http://www.w3.org/2000/svg">
<path d="M3 8C3.55228 8 4 7.55228 4 7C4 6.44772 3.55228 6 3 6C2.44772 6 2 6.44772 2 7C2 7.55228 2.44772 8 3 8Z" fill="black"/>
<path d="M8 6C7.44772 6 7 6.44772 7 7C7 7.55228 7.44772 8 8 8H21C21.5523 8 22 7.55228 22 7C22 6.44772 21.5523 6 21 6H8Z" fill="black"/>
<path d="M8 11C7.44772 11 7 11.4477 7 12C7 12.5523 7.44772 13 8 13H21C21.5523 13 22 12.5523 22 12C22 11.4477 21.5523 11 21 11H8Z" fill="black"/>
<path d="M8 18H21C21.5523 18 22 17.5523 22 17C22 16.4477 21.5523 16 21 16L8 16C7.44772 16 7 16.4477 7 17C7 17.5523 7.44772 18 8 18Z" fill="black"/>
<path d="M4 12C4 12.5523 3.55228 13 3 13C2.44772 13 2 12.5523 2 12C2 11.4477 2.44772 11 3 11C3.55228 11 4 11.4477 4 12Z" fill="black"/>
<path d="M3 18C3.55228 18 4 17.5523 4 17C4 16.4477 3.55228 16 3 16C2.44772 16 2 16.4477 2 17C2 17.5523 2.44772 18 3 18Z" fill="black"/>
</svg>
