<svg width="24" height="24" viewBox="0 0 24 24" fill="none" xmlns="http://www.w3.org/2000/svg">
<path fill-rule="evenodd" clip-rule="evenodd" d="M11.1301 5.89002C10.9701 5.37002 10.5201 5.02002 10.0201 5.02002C9.52011 5.02002 9.07011 5.37002 8.91011 5.89002L5.38011 17.31C5.17011 17.98 5.51011 18.69 6.12011 18.92C6.73011 19.15 7.40011 18.78 7.61011 18.12L8.13011 16.45H11.9201L12.4201 18.1C12.6201 18.77 13.2901 19.12 13.9001 18.91C14.5101 18.69 14.8501 17.97 14.6401 17.3L11.1301 5.88002H11.1401L11.1301 5.89002ZM11.1201 13.91L10.0201 10.3L8.91011 13.91H11.1401H11.1201Z" fill="black"/>
<path d="M17.6899 21.29C17.1399 21.29 16.6899 20.82 16.6899 20.25V3.74996C16.6899 3.16996 17.1399 2.70996 17.6899 2.70996C18.2399 2.70996 18.6899 3.17996 18.6899 3.74996V20.25C18.6899 20.83 18.2399 21.29 17.6899 21.29Z" fill="black"/>
</svg>
