<?xml version="1.0" encoding="UTF-8"?>
<svg id="Ebene_1" xmlns="http://www.w3.org/2000/svg" version="1.1" viewBox="0 0 24 24">
  <!-- Generator: Adobe Illustrator 29.4.0, SVG Export Plug-In . SVG Version: 2.1.0 Build 152)  -->
  <defs>
    <style>
      .st0 {
        fill-rule: evenodd;
      }
    </style>
  </defs>
  <path class="st0" d="M10,8c-2.49,0-4.5,2.01-4.5,4.5s2.01,4.5,4.5,4.5,4.5-2.01,4.5-4.5-2.01-4.5-4.5-4.5ZM10,15c-1.38,0-2.5-1.12-2.5-2.5s1.12-2.5,2.5-2.5,2.5,1.12,2.5,2.5-1.12,2.5-2.5,2.5Z"/>
  <path class="st0" d="M17.5,6h-2.59l-1.71-1.71c-.19-.19-.44-.29-.71-.29h-5c-.27,0-.52.11-.71.29l-1.71,1.71h-2.59c-1.1,0-2,.9-2,2v9c0,1.66,1.34,3,3,3h6.62c.55,0,1-.45,1-1s-.45-1-1-1H3.5c-.55,0-1-.45-1-1v-9h3c.27,0,.52-.11.71-.29l1.71-1.71h4.17l1.71,1.71c.19.19.44.29.71.29h3v3.5c0,.55.45,1,1,1s1-.45,1-1v-3.5c0-1.1-.9-2-2-2h-.01Z"/>
  <path class="st0" d="M18,14c-1.88,0-3.48,1.25-3.95,2.98-.02.03-.05.05-.08.06-.86.42-1.47,1.3-1.47,2.34,0,1.38,1.07,2.49,2.41,2.61h6.01c.13,0,.29-.01.47-.06,1.34-.42,2.12-1.7,2.12-3.01,0-1.41-1.14-2.47-2.17-2.89-.63-1.21-1.76-2.03-3.33-2.03ZM15.98,17.51c.22-.85,1.03-1.51,2.02-1.51.76,0,1.25.35,1.57.99.22.43.59.74,1,.89.6.24.93.74.93,1.04,0,.53-.3.93-.65,1.08h-5.79c-.33-.05-.56-.32-.56-.62,0-.23.13-.44.35-.55.48-.23.96-.68,1.13-1.33Z"/>
</svg>