<svg width="24" height="24" viewBox="0 0 24 24" fill="none" xmlns="http://www.w3.org/2000/svg">
<path fill-rule="evenodd" clip-rule="evenodd" d="M12 7.99902C9.51472 7.99902 7.5 10.0137 7.5 12.499C7.5 14.9843 9.51472 16.999 12 16.999C14.4853 16.999 16.5 14.9843 16.5 12.499C16.5 10.0137 14.4853 7.99902 12 7.99902ZM9.5 12.499C9.5 11.1183 10.6193 9.99902 12 9.99902C13.3807 9.99902 14.5 11.1183 14.5 12.499C14.5 13.8797 13.3807 14.999 12 14.999C10.6193 14.999 9.5 13.8797 9.5 12.499Z" fill="black"/>
<path fill-rule="evenodd" clip-rule="evenodd" d="M9 3.99902C8.73478 3.99902 8.48043 4.10438 8.29289 4.29192L6.58579 5.99902H4C2.89543 5.99902 2 6.89445 2 7.99902V16.999C2 18.6559 3.34315 19.999 5 19.999H19C20.6569 19.999 22 18.6559 22 16.999V7.99902C22 6.89445 21.1046 5.99902 20 5.99902H17.4142L15.7071 4.29192C15.5196 4.10438 15.2652 3.99902 15 3.99902H9ZM7.70711 7.70613L9.41421 5.99902H14.5858L16.2929 7.70613C16.4804 7.89367 16.7348 7.99902 17 7.99902H20V16.999C20 17.5513 19.5523 17.999 19 17.999H5C4.44772 17.999 4 17.5513 4 16.999V7.99902L7 7.99902C7.26522 7.99902 7.51957 7.89367 7.70711 7.70613Z" fill="black"/>
</svg>
