<svg width="24" height="24" viewBox="0 0 24 24" fill="none" xmlns="http://www.w3.org/2000/svg">
<path fill-rule="evenodd" clip-rule="evenodd" d="M15.95 3.27995C15.95 2.12995 16.78 1.19995 17.8 1.19995H21C22.02 1.19995 22.85 2.12995 22.85 3.27995V5.31995C22.85 6.46995 22.02 7.39995 21 7.39995H17.8C16.78 7.39995 15.95 6.46995 15.95 5.31995V3.27995ZM17.86 3.33995V5.25995H20.96V3.33995H17.86Z" fill="black"/>
<path fill-rule="evenodd" clip-rule="evenodd" d="M9.04004 2.77995C9.04004 1.62995 9.87004 0.699951 10.89 0.699951H13.09C14.11 0.699951 14.94 1.62995 14.94 2.77995V5.81995C14.94 6.96995 14.11 7.89995 13.09 7.89995H10.89C9.87004 7.89995 9.04004 6.96995 9.04004 5.81995V2.77995ZM10.95 2.83995V5.75995H13.05V2.83995H10.95Z" fill="black"/>
<path fill-rule="evenodd" clip-rule="evenodd" d="M1.13989 3.27995C1.13989 2.12995 1.96989 1.19995 2.98989 1.19995H6.18989C7.20989 1.19995 8.03989 2.12995 8.03989 3.27995V5.31995C8.03989 6.46995 7.20989 7.39995 6.18989 7.39995H2.98989C1.96989 7.39995 1.13989 6.46995 1.13989 5.31995V3.27995ZM3.04989 3.33995V5.25995H6.14989V3.33995H3.04989Z" fill="black"/>
<path fill-rule="evenodd" clip-rule="evenodd" d="M1.13989 18.6801C1.13989 17.5301 1.96989 16.6001 2.98989 16.6001H6.18989C7.20989 16.6001 8.03989 17.5301 8.03989 18.6801V20.7201C8.03989 21.8701 7.20989 22.8001 6.18989 22.8001H2.98989C1.96989 22.8001 1.13989 21.8701 1.13989 20.7201V18.6801ZM3.04989 18.7401V20.6601H6.14989V18.7401H3.04989Z" fill="black"/>
<path fill-rule="evenodd" clip-rule="evenodd" d="M15.96 18.6801C15.96 17.5301 16.79 16.6001 17.81 16.6001H21.01C22.03 16.6001 22.86 17.5301 22.86 18.6801V20.7201C22.86 21.8701 22.03 22.8001 21.01 22.8001H17.81C16.79 22.8001 15.96 21.8701 15.96 20.7201V18.6801ZM17.87 18.7401V20.6601H20.97V18.7401H17.87Z" fill="black"/>
<path fill-rule="evenodd" clip-rule="evenodd" d="M9.04004 18.1801C9.04004 17.0301 9.87004 16.1001 10.89 16.1001H13.09C14.11 16.1001 14.94 17.0301 14.94 18.1801V21.2201C14.94 22.3701 14.11 23.3001 13.09 23.3001H10.89C9.87004 23.3001 9.04004 22.3701 9.04004 21.2201V18.1801ZM10.95 18.2401V21.1601H13.05V18.2401H10.95Z" fill="black"/>
<path fill-rule="evenodd" clip-rule="evenodd" d="M8.54004 10.9799C8.54004 9.8299 9.37004 8.8999 10.39 8.8999H13.59C14.61 8.8999 15.44 9.8299 15.44 10.9799V13.0199C15.44 14.1699 14.61 15.0999 13.59 15.0999H10.39C9.37004 15.0999 8.54004 14.1699 8.54004 13.0199V10.9799ZM10.45 11.0399V12.9599H13.55V11.0399H10.45Z" fill="black"/>
<path fill-rule="evenodd" clip-rule="evenodd" d="M1.63989 10.4799C1.63989 9.3299 2.46989 8.3999 3.48989 8.3999H5.68989C6.70989 8.3999 7.53989 9.3299 7.53989 10.4799V13.5199C7.53989 14.6699 6.70989 15.5999 5.68989 15.5999H3.48989C2.46989 15.5999 1.63989 14.6699 1.63989 13.5199V10.4799ZM3.54989 10.5399V13.4599H5.64989V10.5399H3.54989Z" fill="black"/>
<path fill-rule="evenodd" clip-rule="evenodd" d="M16.45 10.4799C16.45 9.3299 17.2799 8.3999 18.2999 8.3999H20.5C21.52 8.3999 22.35 9.3299 22.35 10.4799V13.5199C22.35 14.6699 21.52 15.5999 20.5 15.5999H18.2999C17.2799 15.5999 16.45 14.6699 16.45 13.5199V10.4799ZM18.36 10.5399V13.4599H20.4599V10.5399H18.36Z" fill="black"/>
</svg>
