<svg width="24" height="24" viewBox="0 0 24 24" fill="none" xmlns="http://www.w3.org/2000/svg">
<path d="M10.3091 9.48541C10.1237 9.37419 9.89288 9.37128 9.70477 9.47778C9.51667 9.58429 9.40039 9.78374 9.40039 9.9999V15.2496C9.40039 15.4657 9.51667 15.6652 9.70477 15.7717C9.89288 15.8782 10.1237 15.8753 10.3091 15.7641L14.6838 13.1392C14.8645 13.0308 14.9751 12.8355 14.9751 12.6247C14.9751 12.414 14.8645 12.2187 14.6838 12.1102L10.3091 9.48541Z" fill="black"/>
<path fill-rule="evenodd" clip-rule="evenodd" d="M2 5C2 4.44772 2.44772 4 3 4H10.0975C11.3985 4 12.5135 4.83026 12.9266 6H21C21.5523 6 22 6.44771 22 7V17C22 18.6569 20.6569 20 19 20H5C3.34315 20 2 18.6569 2 17V5ZM4 6V17C4 17.5523 4.44772 18 5 18H19C19.5523 18 20 17.5523 20 17V8H12.1C11.5671 8 11.1279 7.58215 11.1012 7.04994L11.0963 6.95006C11.0696 6.41785 10.6304 6 10.0975 6H4Z" fill="black"/>
</svg>
