<svg width="24" height="24" viewBox="0 0 24 24" fill="none" xmlns="http://www.w3.org/2000/svg">
<path d="M19 11C19 11.5523 18.5523 12 18 12C17.4477 12 17 11.5523 17 11C17 10.4477 17.4477 10 18 10C18.5523 10 19 10.4477 19 11Z" fill="black"/>
<path fill-rule="evenodd" clip-rule="evenodd" d="M8 2C7.44772 2 7 2.44772 7 3V7H3C2.44772 7 2 7.44772 2 8V15C2 16.6569 3.34315 18 5 18H7V21C7 21.5523 7.44772 22 8 22H16C16.5523 22 17 21.5523 17 21V18H19C20.6569 18 22 16.6569 22 15V8C22 7.44772 21.5523 7 21 7H17V3C17 2.44772 16.5523 2 16 2H8ZM8 13C7.44772 13 7 13.4477 7 14V16H5C4.44772 16 4 15.5523 4 15V9H20V15C20 15.5523 19.5523 16 19 16H17V14C17 13.4477 16.5523 13 16 13H8ZM15 7V4H9V7H15ZM9 15V20H15V15H9Z" fill="black"/>
</svg>
