<svg width="24" height="24" viewBox="0 0 24 24" fill="none" xmlns="http://www.w3.org/2000/svg">
<path d="M6.71998 14.0701C6.56998 13.9801 6.37998 13.9701 6.22998 14.0701C6.07998 14.1601 5.97998 14.3301 5.97998 14.5101V18.9401C5.97998 19.1201 6.06998 19.2901 6.22998 19.3801C6.37998 19.4701 6.56998 19.4701 6.71998 19.3801L10.26 17.1701C10.41 17.0801 10.5 16.9101 10.5 16.7401C10.5 16.5701 10.41 16.4001 10.26 16.3101L6.71998 14.1001V14.0701Z" fill="black"/>
<path fill-rule="evenodd" clip-rule="evenodd" d="M4.01001 9.91992C2.35001 9.91992 1.01001 11.3199 1.01001 13.0399V20.3799C1.01001 22.1099 2.35001 23.4999 4.01001 23.4999H12.01C13.67 23.4999 15.01 22.0999 15.01 20.3799V19.9199L18.39 22.7299C18.69 22.9799 19.1 23.0299 19.45 22.8599C19.8 22.6899 20.02 22.3199 20.02 21.9199V11.4999C20.02 11.0999 19.8 10.7299 19.45 10.5599C19.1 10.3899 18.69 10.4399 18.39 10.6899L15.01 13.4999V13.0399C15.01 11.3099 13.67 9.91992 12.01 9.91992H4.01001ZM15.01 16.1799V17.2599L18.01 19.7599V13.6799L15.01 16.1799ZM13.01 13.0499C13.01 12.4699 12.56 12.0099 12.01 12.0099H4.01001C3.46001 12.0099 3.01001 12.4799 3.01001 13.0499V20.3899C3.01001 20.9699 3.46001 21.4299 4.01001 21.4299H12.01C12.56 21.4299 13.01 20.9599 13.01 20.3899V13.0499Z" fill="black"/>
<path fill-rule="evenodd" clip-rule="evenodd" d="M21.01 2.59H18.42L16.71 0.81C16.52 0.61 16.27 0.5 16 0.5H11C10.73 0.5 10.48 0.61 10.29 0.81L8.57999 2.59H5.98999C4.88999 2.59 3.98999 3.52 3.98999 4.67V8.92H5.98999V4.67H8.98999C9.25999 4.67 9.50999 4.56 9.69999 4.36L11.41 2.58H15.58L17.29 4.36C17.48 4.56 17.73 4.67 18 4.67H21V15.98C22.16 15.55 23 14.41 23 13.05V4.68C23 3.53 22.1 2.6 21 2.6H21.01V2.59Z" fill="black"/>
<path fill-rule="evenodd" clip-rule="evenodd" d="M11.4701 7.91992C11.8201 7.10992 12.6001 6.53992 13.5101 6.53992C14.7501 6.53992 15.7501 7.58992 15.7501 8.87992C15.7501 9.34992 15.6101 9.78992 15.3801 10.1599C15.5401 10.3799 15.6701 10.6099 15.7701 10.8699L17.5101 9.41992C17.5301 9.23992 17.5501 9.06992 17.5501 8.87992C17.5501 6.55992 15.7401 4.66992 13.5101 4.66992C11.6001 4.66992 10.0101 6.05992 9.59009 7.91992H11.4701Z" fill="black"/>
</svg>
