<svg width="24" height="24" viewBox="0 0 24 24" fill="none" xmlns="http://www.w3.org/2000/svg">
<path d="M7.91846 8.88555C7.7331 8.77434 7.50225 8.77143 7.31415 8.87793C7.12604 8.98443 7.00977 9.18389 7.00977 9.40005V14.6497C7.00977 14.8659 7.12604 15.0653 7.31415 15.1718C7.50225 15.2784 7.7331 15.2754 7.91846 15.1642L12.2932 12.5394C12.4739 12.431 12.5845 12.2356 12.5845 12.0249C12.5845 11.8141 12.4739 11.6188 12.2932 11.5104L7.91846 8.88555Z" fill="black"/>
<path fill-rule="evenodd" clip-rule="evenodd" d="M5 5C3.34315 5 2 6.34315 2 8V16C2 17.6569 3.34315 19 5 19H14C15.6569 19 17 17.6569 17 16V15.0806L20.3753 17.7809C20.6755 18.021 21.0867 18.0678 21.4332 17.9013C21.7797 17.7348 22 17.3844 22 17V7.00001C22 6.6156 21.7797 6.26523 21.4332 6.09871C21.0867 5.93219 20.6755 5.979 20.3753 6.21914L17 8.91938V8C17 6.34315 15.6569 5 14 5H5ZM17 11.4806V12.5194L20 14.9194V9.08063L17 11.4806ZM15 8C15 7.44772 14.5523 7 14 7H5C4.44772 7 4 7.44772 4 8V16C4 16.5523 4.44772 17 5 17H14C14.5523 17 15 16.5523 15 16V8Z" fill="black"/>
</svg>
