<svg width="24" height="24" viewBox="0 0 24 24" fill="none" xmlns="http://www.w3.org/2000/svg">
<path fill-rule="evenodd" clip-rule="evenodd" d="M2 12C2 6.47715 6.47715 2 12 2C17.5228 2 22 6.47715 22 12C22 17.5228 17.5228 22 12 22C6.47715 22 2 17.5228 2 12ZM11.9996 17.2C11.4473 17.2 10.9996 16.7522 10.9996 16.2V13L7.7998 13C7.24752 13 6.7998 12.5523 6.7998 12C6.7998 11.4477 7.24752 11 7.7998 11L10.9996 11V7.79996C10.9996 7.24767 11.4473 6.79996 11.9996 6.79996C12.5519 6.79996 12.9996 7.24767 12.9996 7.79996V11H16.1998C16.7521 11 17.1998 11.4477 17.1998 12C17.1998 12.5523 16.7521 13 16.1998 13H12.9996V16.2C12.9996 16.7522 12.5519 17.2 11.9996 17.2Z" fill="black"/>
</svg>
