<svg width="24" height="24" viewBox="0 0 24 24" fill="none" xmlns="http://www.w3.org/2000/svg">
<path d="M19.0717 4.93175C17.119 2.97913 13.9532 2.97913 12.0006 4.93175L9.87928 7.05307C7.93219 9.00016 7.92667 12.1536 9.86273 14.1075L9.87883 14.124C10.2694 14.5145 10.9025 14.5145 11.293 14.124C11.6835 13.7336 11.6836 13.1006 11.2933 12.7101C10.1218 11.5385 10.1219 9.63886 11.2935 8.46729L13.4148 6.34596C14.5864 5.17439 16.4859 5.17439 17.6575 6.34596C18.829 7.51754 18.829 9.41703 17.6575 10.5886L16.9503 11.2957C16.5598 11.6862 16.5598 12.3194 16.9503 12.7099C17.3409 13.1005 17.974 13.1004 18.3646 12.7099L19.0717 12.0028C21.0243 10.0502 21.0243 6.88437 19.0717 4.93175Z" fill="black"/>
<path d="M12.0004 19.0739C10.0478 21.0265 6.88193 21.0265 4.92931 19.0739C2.97669 17.1213 2.97669 13.9554 4.92931 12.0028L5.63642 11.2957C6.02694 10.9052 6.66011 10.9052 7.05063 11.2957C7.44115 11.6862 7.44115 12.3194 7.05063 12.7099L6.34352 13.417C5.17195 14.5886 5.17195 16.4881 6.34352 17.6597C7.5151 18.8312 9.41459 18.8312 10.5862 17.6597L12.7075 15.5383C13.8791 14.3668 13.8791 12.4673 12.7075 11.2957C12.3173 10.9052 12.3175 10.2721 12.7079 9.88164C13.0985 9.49112 13.7316 9.49112 14.1221 9.88164C14.1276 9.88708 14.1329 9.89256 14.1382 9.89808C16.0743 11.852 16.0688 15.0055 14.1217 16.9526L12.0004 19.0739Z" fill="black"/>
</svg>
