<svg width="24" height="24" viewBox="0 0 24 24" fill="none" xmlns="http://www.w3.org/2000/svg">
<path fill-rule="evenodd" clip-rule="evenodd" d="M15.95 3.53996C15.95 2.38996 16.78 1.45996 17.8 1.45996H20C21.02 1.45996 21.85 2.38996 21.85 3.53996V5.57996C21.85 6.72996 21.02 7.65996 20 7.65996H17.8C16.78 7.65996 15.95 6.72996 15.95 5.57996V3.53996ZM17.86 3.59996V5.51996H19.96V3.59996H17.86Z" fill="black"/>
<path fill-rule="evenodd" clip-rule="evenodd" d="M9.05005 3.53996C9.05005 2.38996 9.88005 1.45996 10.9 1.45996H13.1C14.12 1.45996 14.95 2.38996 14.95 3.53996V5.57996C14.95 6.72996 14.12 7.65996 13.1 7.65996H10.9C9.88005 7.65996 9.05005 6.72996 9.05005 5.57996V3.53996ZM10.96 3.59996V5.51996H13.06V3.59996H10.96Z" fill="black"/>
<path fill-rule="evenodd" clip-rule="evenodd" d="M2.1499 3.53996C2.1499 2.38996 2.9799 1.45996 3.9999 1.45996H6.1999C7.2199 1.45996 8.0499 2.38996 8.0499 3.53996V5.57996C8.0499 6.72996 7.2199 7.65996 6.1999 7.65996H3.9999C2.9799 7.65996 2.1499 6.72996 2.1499 5.57996V3.53996ZM4.0599 3.59996V5.51996H6.1599V3.59996H4.0599Z" fill="black"/>
<path fill-rule="evenodd" clip-rule="evenodd" d="M15.95 10.7399C15.95 9.58991 16.78 8.65991 17.8 8.65991H20C21.02 8.65991 21.85 9.58991 21.85 10.7399V12.7799C21.85 13.9299 21.02 14.8599 20 14.8599H17.8C16.78 14.8599 15.95 13.9299 15.95 12.7799V10.7399ZM17.86 10.7999V12.7199H19.96V10.7999H17.86Z" fill="black"/>
<path fill-rule="evenodd" clip-rule="evenodd" d="M9.05005 10.7399C9.05005 9.58991 9.88005 8.65991 10.9 8.65991H13.1C14.12 8.65991 14.95 9.58991 14.95 10.7399V12.7799C14.95 13.9299 14.12 14.8599 13.1 14.8599H10.9C9.88005 14.8599 9.05005 13.9299 9.05005 12.7799V10.7399ZM10.96 10.7999V12.7199H13.06V10.7999H10.96Z" fill="black"/>
<path fill-rule="evenodd" clip-rule="evenodd" d="M2.1499 10.7399C2.1499 9.58991 2.9799 8.65991 3.9999 8.65991H6.1999C7.2199 8.65991 8.0499 9.58991 8.0499 10.7399V12.7799C8.0499 13.9299 7.2199 14.8599 6.1999 14.8599H3.9999C2.9799 14.8599 2.1499 13.9299 2.1499 12.7799V10.7399ZM4.0599 10.7999V12.7199H6.1599V10.7999H4.0599Z" fill="black"/>
<path fill-rule="evenodd" clip-rule="evenodd" d="M15.95 17.9401C15.95 16.7901 16.78 15.8601 17.8 15.8601H20C21.02 15.8601 21.85 16.7901 21.85 17.9401V19.9801C21.85 21.1301 21.02 22.0601 20 22.0601H17.8C16.78 22.0601 15.95 21.1301 15.95 19.9801V17.9401ZM17.86 18.0001V19.9201H19.96V18.0001H17.86Z" fill="black"/>
<path fill-rule="evenodd" clip-rule="evenodd" d="M9.05005 17.9401C9.05005 16.7901 9.88005 15.8601 10.9 15.8601H13.1C14.12 15.8601 14.95 16.7901 14.95 17.9401V19.9801C14.95 21.1301 14.12 22.0601 13.1 22.0601H10.9C9.88005 22.0601 9.05005 21.1301 9.05005 19.9801V17.9401ZM10.96 18.0001V19.9201H13.06V18.0001H10.96Z" fill="black"/>
<path fill-rule="evenodd" clip-rule="evenodd" d="M2.1499 17.9401C2.1499 16.7901 2.9799 15.8601 3.9999 15.8601H6.1999C7.2199 15.8601 8.0499 16.7901 8.0499 17.9401V19.9801C8.0499 21.1301 7.2199 22.0601 6.1999 22.0601H3.9999C2.9799 22.0601 2.1499 21.1301 2.1499 19.9801V17.9401ZM4.0599 18.0001V19.9201H6.1599V18.0001H4.0599Z" fill="black"/>
</svg>
