<svg width="24" height="24" viewBox="0 0 24 24" fill="none" xmlns="http://www.w3.org/2000/svg">
<path d="M6.95032 7.9758C7.43396 5.72276 9.4971 4.00049 12 4.00049C13.9833 4.00049 15.3013 4.99205 16.0997 6.65102C16.3649 7.20195 16.8401 7.59226 17.3739 7.78179C18.0624 8.0262 18.7401 8.48306 19.2367 9.0552C19.7342 9.62829 20 10.2553 20 10.8466C20 12.3371 19.1106 13.6141 17.8609 14.0005H16C15.4477 14.0005 15 14.4482 15 15.0005C15 15.5528 15.4477 16.0005 16 16.0005H17.871C18.0359 16.0005 18.2203 15.9807 18.411 15.9236C20.6398 15.2566 22 13.0979 22 10.8466C22 9.65194 21.4702 8.57722 20.7471 7.74413C20.0231 6.91009 19.055 6.25634 18.0431 5.89705C17.9631 5.86867 17.9192 5.81963 17.9019 5.78369C16.8146 3.52448 14.849 2.00049 12 2.00049C8.56972 2.00049 5.6796 4.36619 4.99487 7.55605C4.97699 7.63933 4.88874 7.77132 4.70686 7.84299C3.13379 8.46279 2 9.97658 2 11.7697C2 13.9873 3.7311 15.7959 5.90833 15.9963L5.95407 16.0005H8C8.55228 16.0005 9 15.5528 9 15.0005C9 14.4482 8.55228 14.0005 8 14.0005H6.04995C4.88157 13.8722 4 12.8997 4 11.7697C4 10.8503 4.58162 10.042 5.44002 9.70376C6.13874 9.42845 6.76955 8.81793 6.95032 7.9758Z" fill="black"/>
<path d="M13.9179 17.6683C14.3085 17.2778 14.9417 17.2779 15.3322 17.6684C15.7227 18.059 15.7226 18.6921 15.3321 19.0826L12.7067 21.7076C12.3162 22.0981 11.6831 22.0981 11.2926 21.7076L8.66756 19.0826C8.27703 18.6921 8.27703 18.0589 8.66756 17.6684C9.05808 17.2779 9.69125 17.2779 10.0818 17.6684L10.9997 18.5863V11.0005C10.9997 10.4482 11.4474 10.0005 11.9997 10.0005C12.5519 10.0005 12.9997 10.4482 12.9997 11.0005V18.5865L13.9179 17.6683Z" fill="black"/>
</svg>
