<svg width="24" height="24" viewBox="0 0 24 24" fill="none" xmlns="http://www.w3.org/2000/svg">
<path fill-rule="evenodd" clip-rule="evenodd" d="M10.5737 3.8646C11.0227 2.48264 12.9778 2.48263 13.4269 3.8646L15.0961 9.00185L20.4977 9.00185C21.9508 9.00185 22.5549 10.8613 21.3794 11.7154L17.0094 14.8904L18.6786 20.0276C19.1276 21.4096 17.5459 22.5588 16.3703 21.7047L12.0003 18.5297L7.63027 21.7047C6.45471 22.5588 4.87298 21.4096 5.32201 20.0276L6.9912 14.8904L2.6212 11.7154C1.44563 10.8613 2.04978 9.00185 3.50287 9.00185L8.9045 9.00185L10.5737 3.8646ZM12.0003 5.94616L10.6944 9.96538C10.4935 10.5834 9.91761 11.0019 9.26777 11.0019H5.04172L8.46067 13.4859C8.9864 13.8678 9.20639 14.5449 9.00557 15.1629L7.69965 19.1821L11.1186 16.6981C11.6443 16.3162 12.3562 16.3162 12.882 16.6981L16.3009 19.1821L14.995 15.1629C14.7942 14.5449 15.0142 13.8678 15.5399 13.4859L18.9588 11.0019H14.7328C14.0829 11.0019 13.507 10.5834 13.3062 9.96538L12.0003 5.94616Z" fill="black"/>
</svg>
