<svg width="24" height="24" viewBox="0 0 24 24" fill="none" xmlns="http://www.w3.org/2000/svg">
<path d="M6.95032 8.97532C7.43396 6.72227 9.4971 5 12 5C13.9833 5 15.3013 5.99156 16.0997 7.65053C16.3649 8.20147 16.8401 8.59177 17.3739 8.7813C18.0624 9.02572 18.7401 9.48257 19.2367 10.0547C19.7342 10.6278 20 11.2548 20 11.8462C20 13.3367 19.1106 14.6136 17.8609 15H17.2C16.6477 15 16.2 15.4477 16.2 16C16.2 16.5523 16.6477 17 17.2 17H17.871C18.0359 17 18.2203 16.9802 18.411 16.9231C20.6398 16.2562 22 14.0974 22 11.8462C22 10.6515 21.4702 9.57673 20.7471 8.74365C20.0231 7.9096 19.055 7.25585 18.0431 6.89656C17.9631 6.86818 17.9192 6.81914 17.9019 6.7832C16.8146 4.52399 14.849 3 12 3C8.56972 3 5.6796 5.3657 4.99487 8.55556C4.97699 8.63884 4.88874 8.77083 4.70686 8.8425C3.13379 9.46231 2 10.9761 2 12.7692C2 14.9869 3.7311 16.7954 5.90833 16.9958L5.95407 17H7C7.55228 17 8 16.5523 8 16C8 15.4477 7.55228 15 7 15H6.04995C4.88157 14.8717 4 13.8992 4 12.7692C4 11.8498 4.58162 11.0415 5.44002 10.7033C6.13874 10.428 6.76955 9.81744 6.95032 8.97532Z" fill="black"/>
<path d="M10.0821 14.132C9.69151 14.5225 9.05835 14.5224 8.66785 14.1319C8.27735 13.7413 8.27739 13.1082 8.66794 12.7177L11.2933 10.0927C11.6838 9.70217 12.3169 9.70219 12.7074 10.0927L15.3324 12.7177C15.723 13.1082 15.723 13.7414 15.3324 14.1319C14.9419 14.5224 14.3088 14.5224 13.9182 14.1319L13.0003 13.214V20.7998C13.0003 21.3521 12.5526 21.7998 12.0003 21.7998C11.4481 21.7998 11.0003 21.3521 11.0003 20.7998V13.2138L10.0821 14.132Z" fill="black"/>
</svg>
