<svg width="24" height="24" viewBox="0 0 24 24" fill="none" xmlns="http://www.w3.org/2000/svg">
<path d="M19.9629 20C19.9629 21.1046 19.0675 22 17.9629 22L5.96289 22C4.85832 22 3.96289 21.1046 3.96289 20V19C3.96289 18.4477 4.41061 18 4.96289 18C5.51518 18 5.96289 18.4477 5.96289 19V20L17.9629 20V19C17.9629 18.4477 18.4106 18 18.9629 18C19.5152 18 19.9629 18.4477 19.9629 19V20Z" fill="black"/>
<path fill-rule="evenodd" clip-rule="evenodd" d="M18.9629 10.7C18.4106 10.7 17.9629 10.2523 17.9629 9.7L17.9629 4L11.9629 4L11.9629 8C11.9629 9.10457 11.0675 10 9.96289 10L5.91711 10C5.78968 10.4057 5.41065 10.7 4.96289 10.7C4.41061 10.7 3.96289 10.2523 3.96289 9.7V9.41421C3.96289 8.88378 4.17361 8.37507 4.54868 8L9.96289 2.58579C10.338 2.21071 10.8467 2 11.3771 2H17.9629C19.0675 2 19.9629 2.89543 19.9629 4V9.7C19.9629 10.2523 19.5152 10.7 18.9629 10.7ZM7.3771 8L9.96289 5.41421L9.96289 8L7.3771 8Z" fill="black"/>
<path d="M15.6908 14.9705V16.9375H14.9488V12.2615H17.5388V12.9545H15.6908V14.2775H17.4758V14.9705H15.6908Z" fill="black"/>
<path fill-rule="evenodd" clip-rule="evenodd" d="M9.94219 16.9375V12.2615H11.4962C11.8929 12.2615 12.2359 12.3525 12.5252 12.5345C12.8192 12.7118 13.0455 12.9755 13.2042 13.3255C13.3629 13.6755 13.4422 14.1001 13.4422 14.5995C13.4422 15.0988 13.3629 15.5235 13.2042 15.8735C13.0455 16.2235 12.8192 16.4895 12.5252 16.6715C12.2359 16.8488 11.8929 16.9375 11.4962 16.9375H9.94219ZM11.4402 16.2445C11.8275 16.2445 12.1285 16.1091 12.3432 15.8385C12.5625 15.5631 12.6722 15.1501 12.6722 14.5995C12.6722 14.0488 12.5625 13.6381 12.3432 13.3675C12.1285 13.0921 11.8275 12.9545 11.4402 12.9545H10.6842V16.2445H11.4402Z" fill="black"/>
<path fill-rule="evenodd" clip-rule="evenodd" d="M5.40039 12.2615V16.9375H6.14239V15.2645H7.04539C7.48872 15.2645 7.84806 15.1338 8.12339 14.8725C8.40339 14.6111 8.54339 14.2401 8.54339 13.7595C8.54339 13.2788 8.40339 12.9101 8.12339 12.6535C7.84806 12.3921 7.48872 12.2615 7.04539 12.2615H5.40039ZM6.14239 14.5715H6.98939C7.21806 14.5715 7.40472 14.5038 7.54939 14.3685C7.69872 14.2331 7.77339 14.0301 7.77339 13.7595C7.77339 13.4935 7.69872 13.2928 7.54939 13.1575C7.40472 13.0221 7.21806 12.9545 6.98939 12.9545H6.14239V14.5715Z" fill="black"/>
</svg>
