<svg width="24" height="24" viewBox="0 0 24 24" fill="none" xmlns="http://www.w3.org/2000/svg">
<path fill-rule="evenodd" clip-rule="evenodd" d="M12.8086 12.006C12.5 11.8771 12.1614 11.8059 11.8061 11.8059C10.3685 11.8059 9.20312 12.9713 9.20312 14.4089C9.20312 15.8465 10.3685 17.0118 11.8061 17.0118C13.2437 17.0118 14.4091 15.8465 14.4091 14.4089C14.4091 13.2497 14.4086 12.0905 14.4086 10.9313L14.4853 11.008C14.7977 11.3205 15.3042 11.3205 15.6167 11.008C15.9291 10.6956 15.9291 10.1891 15.6167 9.87666L14.1743 8.43429C13.9455 8.20549 13.6014 8.13705 13.3024 8.26087C13.0035 8.3847 12.8086 8.6764 12.8086 8.99997V12.006ZM11.8061 13.4059C11.2522 13.4059 10.8031 13.855 10.8031 14.4089C10.8031 14.9628 11.2522 15.4118 11.8061 15.4118C12.3773 15.4118 12.8086 14.9358 12.8086 14.3779C12.7922 13.8383 12.3497 13.4059 11.8061 13.4059Z" fill="black"/>
<path fill-rule="evenodd" clip-rule="evenodd" d="M18 22C19.1046 22 20 21.1046 20 20V4C20 2.89543 19.1046 2 18 2H11.4142C10.8838 2 10.3751 2.21071 10 2.58579L4.58579 8C4.21071 8.37507 4 8.88378 4 9.41421V20C4 21.1046 4.89543 22 6 22H18ZM18 4V20H6V10H10C11.1046 10 12 9.10457 12 8V4H18ZM10 5.41421L7.41421 8L10 8V5.41421Z" fill="black"/>
</svg>
