<svg width="24" height="24" viewBox="0 0 24 24" fill="none" xmlns="http://www.w3.org/2000/svg">
<path d="M13.7929 3.70711C13.4024 3.31658 13.4024 2.68342 13.7929 2.29289C14.1834 1.90237 14.8166 1.90237 15.2071 2.29289L20.2071 7.29289C20.3946 7.48043 20.5 7.73478 20.5 8C20.5 8.26522 20.3946 8.51957 20.2071 8.70711L15.2071 13.7071C14.8166 14.0976 14.1834 14.0976 13.7929 13.7071C13.4024 13.3166 13.4024 12.6834 13.7929 12.2929L17.0858 9L10 9C9.44772 9 9.00001 9.44772 9.00001 10L9.00001 15.5C9.00001 16.0523 8.5523 16.5 8.00001 16.5C7.44773 16.5 7.00001 16.0523 7.00001 15.5L7.00001 10C7.00001 8.34315 8.34315 7 10 7L17.0858 7L13.7929 3.70711Z" fill="black"/>
<path d="M5 20C4.44772 20 4 19.5523 4 19L4 12C4 11.4477 3.55228 11 3 11C2.44772 11 2 11.4477 2 12V19C2 20.6569 3.34315 22 5 22H19C20.6569 22 22 20.6569 22 19V14.5C22 13.9477 21.5523 13.5 21 13.5C20.4477 13.5 20 13.9477 20 14.5V19C20 19.5523 19.5523 20 19 20H5Z" fill="black"/>
</svg>
