<svg width="24" height="24" viewBox="0 0 24 24" fill="none" xmlns="http://www.w3.org/2000/svg">
<path d="M8.99999 17V11C8.99999 10.4477 9.44771 10 9.99999 10C10.5523 10 11 10.4477 11 11V17C11 17.5523 10.5523 18 9.99999 18C9.44771 18 8.99999 17.5523 8.99999 17Z" fill="black"/>
<path d="M13 11L13 17C13 17.5523 13.4477 18 14 18C14.5523 18 15 17.5523 15 17L15 11C15 10.4477 14.5523 10 14 10C13.4477 10 13 10.4477 13 11Z" fill="black"/>
<path fill-rule="evenodd" clip-rule="evenodd" d="M5.00001 8L5.00004 19C5.00005 20.6569 6.34319 22 8.00004 22L16 22C17.6569 22 19 20.6568 19 19L19 8H20C20.5523 8 21 7.55228 21 7C21 6.44771 20.5523 6 20 6L16 6V5C16 3.34315 14.6568 2 13 2H11C9.34314 2 7.99999 3.34315 7.99999 5V6L4 6C3.44771 6 3 6.44771 3 7C3 7.55228 3.44771 8 4 8H5.00001ZM8.00004 20L16 20C16.5523 20 17 19.5523 17 19L17 8H7.00001L7.00004 19C7.00004 19.5523 7.44776 20 8.00004 20ZM9.99999 6L14 6V5C14 4.44772 13.5523 4 13 4L11 4C10.4477 4 9.99999 4.44772 9.99999 5V6Z" fill="black"/>
</svg>
