<?xml version="1.0" encoding="UTF-8"?>
<svg id="Ebene_1" xmlns="http://www.w3.org/2000/svg" version="1.1" xmlns:xlink="http://www.w3.org/1999/xlink" viewBox="0 0 96 96">
  <!-- Generator: Adobe Illustrator 29.4.0, SVG Export Plug-In . SVG Version: 2.1.0 Build 152)  -->
  <defs>
    <style>
      .st0 {
        fill: none;
      }

      .st1 {
        fill: #84b0f5;
      }

      .st2 {
        clip-path: url(#clippath);
      }
    </style>
    <clipPath id="clippath">
      <rect class="st0" width="96" height="96"/>
    </clipPath>
  </defs>
  <g class="st2">
    <g>
      <path class="st1" d="M48,36c-3.13,0-5.67,2.54-5.67,5.67v3.78h11.33v-3.78c0-3.13-2.54-5.67-5.67-5.67Z"/>
      <path class="st1" d="M80,24h-32l-8-8h-24c-4.4,0-7.96,3.6-7.96,8l-.04,48c0,4.4,3.6,8,8,8h64c4.4,0,8-3.6,8-8v-40c0-4.4-3.6-8-8-8ZM65,64.33c0,3.13-2.54,5.67-5.67,5.67h-22.67c-3.13,0-5.67-2.54-5.67-5.67v-13.22c0-3.13,2.54-5.67,5.67-5.67h1.89v-3.78c0-5.22,4.23-9.44,9.44-9.44s9.44,4.23,9.44,9.44v3.78h1.89c3.13,0,5.67,2.54,5.67,5.67v13.22Z"/>
    </g>
  </g>
</svg>