<svg width="24" height="24" viewBox="0 0 24 24" fill="none" xmlns="http://www.w3.org/2000/svg">
<path fill-rule="evenodd" clip-rule="evenodd" d="M11.535 4.4105L11.6216 4H12.3779L12.465 4.41233C12.9004 6.47491 15.2713 7.45697 17.0377 6.30641L17.3895 6.07726L17.9242 6.61203L17.6949 6.96412C16.5443 8.73048 17.5264 11.1014 19.589 11.5368L20 11.6236V12.3799L19.5905 12.4663C17.5279 12.9018 16.5459 15.2727 17.6964 17.039L17.9247 17.3895L17.3899 17.9242L17.0375 17.6946C15.2711 16.5441 12.9002 17.5261 12.4648 19.5887L12.3779 20H11.6216L11.5352 19.5905C11.0998 17.528 8.72886 16.5459 6.9625 17.6965L6.61052 17.9257L6.07575 17.391L6.30483 17.0393C7.45539 15.2729 6.47332 12.902 4.41075 12.4666L4 12.3799V11.6236L4.41229 11.5366C6.47487 11.1011 7.45693 8.73021 6.30637 6.96386L6.07621 6.61052L6.61098 6.07575L6.96228 6.30458C8.72864 7.45514 11.0995 6.47308 11.535 4.4105ZM14.1673 2.79344C14.0697 2.33096 13.6615 2 13.1889 2H10.8107C10.338 2 9.92991 2.33096 9.83228 2.79344L9.57811 3.99739C9.43297 4.68491 8.64267 5.01226 8.05388 4.62874L7.02309 3.95731C6.62703 3.69933 6.10442 3.75389 5.77018 4.08812L4.08859 5.76972C3.75435 6.10395 3.69979 6.62656 3.95778 7.02263L4.63054 8.05545C5.01406 8.64424 4.6867 9.43454 3.99918 9.57969L2.79344 9.83423C2.33096 9.93187 2 10.34 2 10.8127V13.1908C2 13.6635 2.33096 14.0716 2.79344 14.1692L3.99763 14.4235C4.68516 14.5686 5.01251 15.3589 4.62899 15.9477L3.95731 16.9789C3.69933 17.3749 3.75389 17.8975 4.08812 18.2318L5.76972 19.9134C6.10395 20.2476 6.62656 20.3022 7.02263 20.0442L8.0541 19.3723C8.64289 18.9888 9.43319 19.3161 9.57833 20.0037L9.83228 21.2066C9.92991 21.669 10.338 22 10.8107 22H13.1889C13.6615 22 14.0697 21.669 14.1673 21.2066L14.4216 20.0018C14.5668 19.3143 15.3571 18.9869 15.9459 19.3705L16.9778 20.0427C17.3739 20.3007 17.8965 20.2461 18.2307 19.9119L19.9123 18.2303C20.2466 17.896 20.3011 17.3734 20.0431 16.9774L19.3723 15.9474C18.9887 15.3586 19.3161 14.5683 20.0036 14.4232L21.2066 14.1692C21.669 14.0716 22 13.6635 22 13.1908V10.8127C22 10.34 21.669 9.93187 21.2066 9.83423L20.0021 9.57995C19.3146 9.43481 18.9872 8.64451 19.3707 8.05572L20.0427 7.02414C20.3007 6.62807 20.2461 6.10546 19.9119 5.77123L18.2303 4.08963C17.896 3.7554 17.3734 3.70084 16.9774 3.95882L15.9461 4.63057C15.3573 5.01409 14.567 4.68674 14.4218 3.99921L14.1673 2.79344ZM9.85547 12.1094C9.85547 10.8667 10.8628 9.85938 12.1055 9.85938C13.3481 9.85938 14.3555 10.8667 14.3555 12.1094C14.3555 13.352 13.3481 14.3594 12.1055 14.3594C10.8628 14.3594 9.85547 13.352 9.85547 12.1094ZM12.1055 7.85938C9.75826 7.85938 7.85547 9.76217 7.85547 12.1094C7.85547 14.4566 9.75826 16.3594 12.1055 16.3594C14.4527 16.3594 16.3555 14.4566 16.3555 12.1094C16.3555 9.76217 14.4527 7.85938 12.1055 7.85938Z" fill="black"/>
</svg>
